<svg width="512" height="512" viewBox="0 0 512 512" fill="none" xmlns="http://www.w3.org/2000/svg">
<path d="M32 128C32 74.9807 74.9807 32 128 32H384C437.019 32 480 74.9807 480 128V384C480 437.019 437.019 480 384 480H128C74.9807 480 32 437.019 32 384V128Z" fill="#ffe5e5" id="id_101"></path>
<path fill-rule="evenodd" clip-rule="evenodd" d="M128 32C74.9807 32 32 74.9807 32 128V368C32 412.183 67.8172 448 112 448H368C412.183 448 448 412.183 448 368V112C448 67.8172 412.183 32 368 32H128Z" fill="#ffffff" id="id_102"></path>
<path fill-rule="evenodd" clip-rule="evenodd" d="M255.998 166.568L220.766 256.001H291.229L255.998 166.568ZM306.986 296.001L341.389 383.332C345.438 393.609 357.051 398.658 367.328 394.61C377.605 390.561 382.654 378.948 378.606 368.671L282.049 123.565C272.732 99.9156 239.263 99.9158 229.946 123.565L133.389 368.671C129.341 378.948 134.39 390.561 144.667 394.61C154.944 398.658 166.557 393.609 170.606 383.332L205.009 296.001H306.986Z" fill="#ff0f0f" id="id_103"></path>
</svg>