<?xml version="1.0" encoding="UTF-8" standalone="no"?> <svg xmlns="http://www.w3.org/2000/svg" viewBox="0 0 512 512"><title>warning</title><g id="warning"><path d="M223.51,96.73,52.71,375.44c-15.56,25.39,2.71,58,32.49,58H426.8c29.78,0,48.05-32.63,32.49-58L288.49,96.73A38.11,38.11,0,0,0,223.51,96.73Z" style="fill:#feaa3b"/><path d="M288.49,96.73a38.11,38.11,0,0,0-65,0L161.23,198.37,396.32,433.46H426.8c29.78,0,48.05-32.63,32.49-58Z" style="fill:#d87b16"/><path d="M240.87,136.91,95.45,374.2a17.74,17.74,0,0,0,15.13,27H401.42a17.74,17.74,0,0,0,15.13-27L271.13,136.91A17.74,17.74,0,0,0,240.87,136.91Z" style="fill:#fff"/><path d="M256,195.84h0a16.62,16.62,0,0,0-16.6,17.22L243.1,313A12.91,12.91,0,0,0,256,325.37h0A12.91,12.91,0,0,0,268.9,313l3.7-99.89A16.62,16.62,0,0,0,256,195.84Z" style="fill:#2f4359"/><circle cx="256" cy="356.88" r="14.45" transform="translate(-177.37 285.55) rotate(-45)" style="fill:#2f4359"/></g></svg>