<svg width="512" height="512" viewBox="0 0 512 512" fill="none" xmlns="http://www.w3.org/2000/svg">
<path d="M32 128C32 74.9807 74.9807 32 128 32H384C437.019 32 480 74.9807 480 128V384C480 437.019 437.019 480 384 480H128C74.9807 480 32 437.019 32 384V128Z" fill="#b7ebcb" id="id_101"></path>
<path fill-rule="evenodd" clip-rule="evenodd" d="M128 32C74.9807 32 32 74.9807 32 128V368C32 412.183 67.8172 448 112 448H368C412.183 448 448 412.183 448 368V112C448 67.8172 412.183 32 368 32H128Z" fill="#ffffff" id="id_102"></path>
<path fill-rule="evenodd" clip-rule="evenodd" d="M164 144C164 124.118 180.118 108 200 108H296C342.392 108 380 145.608 380 192C380 238.392 342.392 276 296 276H204V384C204 395.046 195.046 404 184 404C172.954 404 164 395.046 164 384V144ZM204 236H296C320.301 236 340 216.301 340 192C340 167.699 320.301 148 296 148H204V236Z" fill="#18c75b" id="id_103"></path>
</svg>