<svg width="512" height="512" viewBox="0 0 512 512" fill="none" xmlns="http://www.w3.org/2000/svg">
<path fill-rule="evenodd" clip-rule="evenodd" d="M265.506 78.2629C261.3 70.8811 250.703 70.8811 246.497 78.263L50.1763 422.8C45.9801 430.164 51.302 439.269 59.6809 439.269H452.322C460.701 439.269 466.023 430.164 461.827 422.8L265.506 78.2629Z" fill="#D3D3D3" id="id_101"></path>
<path fill-rule="evenodd" clip-rule="evenodd" d="M247.631 76.625C247.935 77.0194 248.216 77.4438 248.472 77.8982L429.419 399.466C433.286 406.34 428.381 414.837 420.659 414.837H58.7647C57.4539 414.837 56.2243 414.592 55.105 414.152L246.495 78.2673C246.835 77.6718 247.216 77.1244 247.631 76.625Z" fill="white" id="id_102"></path>
<path fill-rule="evenodd" clip-rule="evenodd" d="M265.501 78.2633C261.295 70.8815 250.699 70.8814 246.492 78.2633L50.1716 422.8C45.9753 430.165 51.2972 439.269 59.6762 439.269H452.318C460.697 439.269 466.018 430.165 461.822 422.8L265.501 78.2633ZM211.189 58.0718C230.997 23.3095 280.997 23.3094 300.804 58.0718L497.125 402.609C516.759 437.065 491.969 479.996 452.318 479.996H59.6762C20.0246 479.996 -4.76507 437.065 14.8685 402.609L211.189 58.0718Z" fill="#f51616" id="id_103"></path>
<path fill-rule="evenodd" clip-rule="evenodd" d="M276.174 36.0547L485.81 406.106C499.345 429.998 482.12 459.637 454.699 459.637H18.6328C27.8149 471.775 42.3231 480 59.6785 480H452.32C491.971 480 516.761 437.069 497.128 402.613L300.807 58.0758C294.807 47.5457 286.036 40.2053 276.174 36.0547Z" fill="#9e1818" id="id_104"></path>
<path d="M284.429 374.105C284.429 387.601 273.508 398.541 260.036 398.541C246.564 398.541 235.643 387.601 235.643 374.105C235.643 360.609 246.564 349.669 260.036 349.669C273.508 349.669 284.429 360.609 284.429 374.105Z" fill="#383636" id="id_105"></path>
<path fill-rule="evenodd" clip-rule="evenodd" d="M260.036 170.468C273.508 170.468 284.429 181.408 284.429 194.904V300.794C284.429 314.29 273.508 325.23 260.036 325.23C246.564 325.23 235.643 314.29 235.643 300.794V194.904C235.643 181.408 246.564 170.468 260.036 170.468Z" fill="#3d3c3c" id="id_106"></path>
</svg>